<mxfile host="app.diagrams.net" modified="2023-12-07T12:04:32.563Z" agent="Mozilla/5.0 (Windows NT 10.0; Win64; x64) AppleWebKit/537.36 (KHTML, like Gecko) Chrome/119.0.0.0 Safari/537.36" etag="lr9-G5uCT3bXlCxnNDsL" version="22.1.7" type="github">
  <diagram name="Pagina-1" id="_xdyVtsLKk-Tw6EEx5Ot">
    <mxGraphModel dx="893" dy="431" grid="1" gridSize="10" guides="1" tooltips="1" connect="1" arrows="1" fold="1" page="1" pageScale="1" pageWidth="827" pageHeight="1169" math="0" shadow="0">
      <root>
        <mxCell id="0" />
        <mxCell id="1" parent="0" />
        <mxCell id="xhZgDfqvbPznFeVXqirZ-46" value="&amp;lt;" style="whiteSpace=wrap;html=1;" parent="1" vertex="1">
          <mxGeometry x="242.47" y="56.83" width="419.5" height="407.17" as="geometry" />
        </mxCell>
        <mxCell id="lOh8rRdROg5qKvjLAgk0-22" value="&lt;font style=&quot;font-size: 10px;&quot;&gt;Max_accTimeSeries&lt;br&gt;[-30m/s^2, 30m/s^2]&lt;br&gt;&lt;/font&gt;" style="text;html=1;strokeColor=none;fillColor=none;align=center;verticalAlign=middle;whiteSpace=wrap;rounded=0;" parent="1" vertex="1">
          <mxGeometry x="580" y="235.07" width="66" height="30" as="geometry" />
        </mxCell>
        <mxCell id="lOh8rRdROg5qKvjLAgk0-26" value="&lt;font style=&quot;font-size: 10px;&quot;&gt;Path_length&lt;br&gt;[0, 3000 km]&lt;br&gt;&lt;/font&gt;" style="text;html=1;strokeColor=none;fillColor=none;align=center;verticalAlign=middle;whiteSpace=wrap;rounded=0;" parent="1" vertex="1">
          <mxGeometry x="270" y="235.07" width="60" height="30" as="geometry" />
        </mxCell>
        <mxCell id="lOh8rRdROg5qKvjLAgk0-29" value="&lt;font style=&quot;font-size: 10px;&quot;&gt;Difference in/fin photos&lt;br&gt;[0,1]&lt;br&gt;&lt;/font&gt;" style="text;html=1;strokeColor=none;fillColor=none;align=center;verticalAlign=middle;whiteSpace=wrap;rounded=0;" parent="1" vertex="1">
          <mxGeometry x="280" y="150.14" width="74" height="30" as="geometry" />
        </mxCell>
        <mxCell id="lOh8rRdROg5qKvjLAgk0-33" value="" style="group;fillColor=#ffffff;strokeColor=none;strokeWidth=0;" parent="1" vertex="1" connectable="0">
          <mxGeometry x="344" y="180.14" width="223.32999999999998" height="158.87" as="geometry" />
        </mxCell>
        <mxCell id="lOh8rRdROg5qKvjLAgk0-13" value="" style="shape=hexagon;perimeter=hexagonPerimeter2;whiteSpace=wrap;html=1;fixedSize=1;" parent="lOh8rRdROg5qKvjLAgk0-33" vertex="1">
          <mxGeometry width="196" height="139.72014000000001" as="geometry" />
        </mxCell>
        <mxCell id="lOh8rRdROg5qKvjLAgk0-14" value="" style="shape=hexagon;perimeter=hexagonPerimeter2;whiteSpace=wrap;html=1;fixedSize=1;" parent="lOh8rRdROg5qKvjLAgk0-33" vertex="1">
          <mxGeometry x="10.888888888888888" y="9.99" width="174.2222222222222" height="118.88100000000001" as="geometry" />
        </mxCell>
        <mxCell id="lOh8rRdROg5qKvjLAgk0-16" value="" style="shape=hexagon;perimeter=hexagonPerimeter2;whiteSpace=wrap;html=1;fixedSize=1;" parent="lOh8rRdROg5qKvjLAgk0-33" vertex="1">
          <mxGeometry x="21.777777777777775" y="19.480500000000003" width="152.44444444444443" height="99.9" as="geometry" />
        </mxCell>
        <mxCell id="lOh8rRdROg5qKvjLAgk0-15" value="" style="shape=hexagon;perimeter=hexagonPerimeter2;whiteSpace=wrap;html=1;fixedSize=1;" parent="lOh8rRdROg5qKvjLAgk0-33" vertex="1">
          <mxGeometry x="32.66666666666666" y="29.470499999999998" width="130.66666666666663" height="79.92" as="geometry" />
        </mxCell>
        <mxCell id="lOh8rRdROg5qKvjLAgk0-12" value="" style="shape=hexagon;perimeter=hexagonPerimeter2;whiteSpace=wrap;html=1;fixedSize=1;" parent="lOh8rRdROg5qKvjLAgk0-33" vertex="1">
          <mxGeometry x="43.55555555555555" y="39.460499999999996" width="108.88888888888889" height="59.940000000000005" as="geometry" />
        </mxCell>
        <mxCell id="lOh8rRdROg5qKvjLAgk0-21" value="" style="endArrow=none;html=1;rounded=0;exitX=0;exitY=0.5;exitDx=0;exitDy=0;" parent="lOh8rRdROg5qKvjLAgk0-33" source="lOh8rRdROg5qKvjLAgk0-13" target="lOh8rRdROg5qKvjLAgk0-20" edge="1">
          <mxGeometry width="50" height="50" relative="1" as="geometry">
            <mxPoint y="69.93" as="sourcePoint" />
            <mxPoint x="196" y="69.93" as="targetPoint" />
          </mxGeometry>
        </mxCell>
        <mxCell id="lOh8rRdROg5qKvjLAgk0-20" value="" style="shape=hexagon;perimeter=hexagonPerimeter2;whiteSpace=wrap;html=1;fixedSize=1;" parent="lOh8rRdROg5qKvjLAgk0-33" vertex="1">
          <mxGeometry x="54.44444444444444" y="49.4505" width="87.1111111111111" height="39.96" as="geometry" />
        </mxCell>
        <mxCell id="lOh8rRdROg5qKvjLAgk0-18" value="" style="endArrow=none;html=1;rounded=0;" parent="lOh8rRdROg5qKvjLAgk0-33" edge="1" source="iuUvo8xiCQcZYHq4g_Gg-148">
          <mxGeometry width="50" height="50" relative="1" as="geometry">
            <mxPoint x="174.2222222222222" y="139.86" as="sourcePoint" />
            <mxPoint x="21.777777777777775" as="targetPoint" />
          </mxGeometry>
        </mxCell>
        <mxCell id="lOh8rRdROg5qKvjLAgk0-19" value="" style="endArrow=none;html=1;rounded=0;exitX=0;exitY=0.5;exitDx=0;exitDy=0;" parent="lOh8rRdROg5qKvjLAgk0-33" source="iuUvo8xiCQcZYHq4g_Gg-92" edge="1">
          <mxGeometry width="50" height="50" relative="1" as="geometry">
            <mxPoint x="141.55555555555554" y="119.88000000000001" as="sourcePoint" />
            <mxPoint x="196" y="69.93" as="targetPoint" />
          </mxGeometry>
        </mxCell>
        <mxCell id="lOh8rRdROg5qKvjLAgk0-17" value="" style="endArrow=none;html=1;rounded=0;exitX=0.102;exitY=0.999;exitDx=0;exitDy=0;exitPerimeter=0;entryX=0.895;entryY=0.003;entryDx=0;entryDy=0;entryPerimeter=0;" parent="lOh8rRdROg5qKvjLAgk0-33" target="lOh8rRdROg5qKvjLAgk0-13" edge="1">
          <mxGeometry width="50" height="50" relative="1" as="geometry">
            <mxPoint x="21.080888888888904" y="139.58041986000003" as="sourcePoint" />
            <mxPoint x="176.70488888888886" y="-0.13972014000005556" as="targetPoint" />
          </mxGeometry>
        </mxCell>
        <mxCell id="lOh8rRdROg5qKvjLAgk0-38" value="&lt;font style=&quot;font-size: 8px;&quot;&gt;0&lt;/font&gt;" style="text;html=1;strokeColor=none;fillColor=none;align=center;verticalAlign=middle;whiteSpace=wrap;rounded=0;" parent="lOh8rRdROg5qKvjLAgk0-33" vertex="1">
          <mxGeometry x="68" y="59.41000000000001" width="60" height="30" as="geometry" />
        </mxCell>
        <mxCell id="lOh8rRdROg5qKvjLAgk0-40" value="&lt;font style=&quot;font-size: 8px;&quot;&gt;1&lt;/font&gt;" style="text;html=1;strokeColor=none;fillColor=none;align=center;verticalAlign=middle;whiteSpace=wrap;rounded=0;" parent="lOh8rRdROg5qKvjLAgk0-33" vertex="1">
          <mxGeometry x="-13.439999999999998" y="126.87" width="60" height="30" as="geometry" />
        </mxCell>
        <mxCell id="xhZgDfqvbPznFeVXqirZ-20" value="" style="ellipse;whiteSpace=wrap;html=1;aspect=fixed;fillColor=#FF3333;" parent="lOh8rRdROg5qKvjLAgk0-33" vertex="1">
          <mxGeometry x="30.670000000000016" y="126.87" width="3" height="3" as="geometry" />
        </mxCell>
        <mxCell id="iuUvo8xiCQcZYHq4g_Gg-20" value="" style="ellipse;whiteSpace=wrap;html=1;aspect=fixed;" vertex="1" parent="lOh8rRdROg5qKvjLAgk0-33">
          <mxGeometry x="133.44" y="98.38" width="20" height="20" as="geometry" />
        </mxCell>
        <mxCell id="iuUvo8xiCQcZYHq4g_Gg-83" value="" style="endArrow=none;html=1;rounded=0;entryX=1;entryY=1;entryDx=0;entryDy=0;" edge="1" parent="lOh8rRdROg5qKvjLAgk0-33" source="iuUvo8xiCQcZYHq4g_Gg-28" target="iuUvo8xiCQcZYHq4g_Gg-148">
          <mxGeometry width="50" height="50" relative="1" as="geometry">
            <mxPoint x="176" y="139.86" as="sourcePoint" />
            <mxPoint x="365.7777777777778" y="180.14" as="targetPoint" />
          </mxGeometry>
        </mxCell>
        <mxCell id="lOh8rRdROg5qKvjLAgk0-39" value="&lt;font style=&quot;font-size: 8px;&quot;&gt;1&lt;/font&gt;" style="text;html=1;strokeColor=none;fillColor=none;align=center;verticalAlign=middle;whiteSpace=wrap;rounded=0;" parent="lOh8rRdROg5qKvjLAgk0-33" vertex="1">
          <mxGeometry x="163.32999999999998" y="119.38" width="60" height="30" as="geometry" />
        </mxCell>
        <mxCell id="iuUvo8xiCQcZYHq4g_Gg-18" value="" style="ellipse;whiteSpace=wrap;html=1;aspect=fixed;" vertex="1" parent="lOh8rRdROg5qKvjLAgk0-33">
          <mxGeometry x="149.44" y="112.87" width="11" height="11" as="geometry" />
        </mxCell>
        <mxCell id="iuUvo8xiCQcZYHq4g_Gg-27" value="" style="ellipse;whiteSpace=wrap;html=1;aspect=fixed;" vertex="1" parent="lOh8rRdROg5qKvjLAgk0-33">
          <mxGeometry x="158.23000000000002" y="120.36999999999999" width="15.99" height="15.99" as="geometry" />
        </mxCell>
        <mxCell id="iuUvo8xiCQcZYHq4g_Gg-65" value="" style="ellipse;whiteSpace=wrap;html=1;aspect=fixed;" vertex="1" parent="lOh8rRdROg5qKvjLAgk0-33">
          <mxGeometry x="171.44" y="133.72000000000003" width="10" height="10" as="geometry" />
        </mxCell>
        <mxCell id="iuUvo8xiCQcZYHq4g_Gg-92" value="" style="ellipse;whiteSpace=wrap;html=1;aspect=fixed;fillColor=#FF3333;strokeColor=#000000;" vertex="1" parent="lOh8rRdROg5qKvjLAgk0-33">
          <mxGeometry x="147.44" y="68.86000000000001" width="3" height="3" as="geometry" />
        </mxCell>
        <mxCell id="iuUvo8xiCQcZYHq4g_Gg-93" value="" style="endArrow=none;html=1;rounded=0;exitX=0;exitY=0.5;exitDx=0;exitDy=0;" edge="1" parent="lOh8rRdROg5qKvjLAgk0-33" source="iuUvo8xiCQcZYHq4g_Gg-94" target="iuUvo8xiCQcZYHq4g_Gg-92">
          <mxGeometry width="50" height="50" relative="1" as="geometry">
            <mxPoint x="398" y="249.14" as="sourcePoint" />
            <mxPoint x="540" y="250.07" as="targetPoint" />
          </mxGeometry>
        </mxCell>
        <mxCell id="iuUvo8xiCQcZYHq4g_Gg-94" value="" style="ellipse;whiteSpace=wrap;html=1;aspect=fixed;fillColor=#FF3333;strokeColor=#000000;" vertex="1" parent="lOh8rRdROg5qKvjLAgk0-33">
          <mxGeometry x="127" y="68.86000000000001" width="3" height="3" as="geometry" />
        </mxCell>
        <mxCell id="iuUvo8xiCQcZYHq4g_Gg-95" value="" style="endArrow=none;html=1;rounded=0;exitX=0;exitY=0.5;exitDx=0;exitDy=0;" edge="1" parent="lOh8rRdROg5qKvjLAgk0-33" source="iuUvo8xiCQcZYHq4g_Gg-98" target="iuUvo8xiCQcZYHq4g_Gg-94">
          <mxGeometry width="50" height="50" relative="1" as="geometry">
            <mxPoint x="398" y="249.14" as="sourcePoint" />
            <mxPoint x="491" y="250.14" as="targetPoint" />
          </mxGeometry>
        </mxCell>
        <mxCell id="iuUvo8xiCQcZYHq4g_Gg-96" value="" style="ellipse;whiteSpace=wrap;html=1;aspect=fixed;fillColor=#FF3333;strokeColor=#000000;" vertex="1" parent="lOh8rRdROg5qKvjLAgk0-33">
          <mxGeometry x="103.72000000000003" y="68.43" width="3" height="3" as="geometry" />
        </mxCell>
        <mxCell id="iuUvo8xiCQcZYHq4g_Gg-97" value="" style="endArrow=none;html=1;rounded=0;exitX=0;exitY=0.5;exitDx=0;exitDy=0;" edge="1" parent="lOh8rRdROg5qKvjLAgk0-33" source="lOh8rRdROg5qKvjLAgk0-20" target="iuUvo8xiCQcZYHq4g_Gg-96">
          <mxGeometry width="50" height="50" relative="1" as="geometry">
            <mxPoint x="398" y="249.14" as="sourcePoint" />
            <mxPoint x="471" y="250.14" as="targetPoint" />
          </mxGeometry>
        </mxCell>
        <mxCell id="iuUvo8xiCQcZYHq4g_Gg-98" value="" style="ellipse;whiteSpace=wrap;html=1;aspect=fixed;fillColor=#FF3333;strokeColor=#000000;" vertex="1" parent="lOh8rRdROg5qKvjLAgk0-33">
          <mxGeometry x="108.5" y="68.43" width="3" height="3" as="geometry" />
        </mxCell>
        <mxCell id="iuUvo8xiCQcZYHq4g_Gg-99" value="" style="endArrow=none;html=1;rounded=0;exitX=0;exitY=0.5;exitDx=0;exitDy=0;" edge="1" parent="lOh8rRdROg5qKvjLAgk0-33" source="iuUvo8xiCQcZYHq4g_Gg-96" target="iuUvo8xiCQcZYHq4g_Gg-98">
          <mxGeometry width="50" height="50" relative="1" as="geometry">
            <mxPoint x="448" y="250.14" as="sourcePoint" />
            <mxPoint x="471" y="250.14" as="targetPoint" />
          </mxGeometry>
        </mxCell>
        <mxCell id="iuUvo8xiCQcZYHq4g_Gg-100" value="" style="ellipse;whiteSpace=wrap;html=1;aspect=fixed;fillColor=#FF3333;strokeColor=#000000;" vertex="1" parent="lOh8rRdROg5qKvjLAgk0-33">
          <mxGeometry x="117" y="68.88" width="3" height="3" as="geometry" />
        </mxCell>
        <mxCell id="iuUvo8xiCQcZYHq4g_Gg-101" value="" style="ellipse;whiteSpace=wrap;html=1;aspect=fixed;fillColor=#FF3333;strokeColor=#000000;" vertex="1" parent="lOh8rRdROg5qKvjLAgk0-33">
          <mxGeometry x="18.779999999999973" y="137.37" width="3" height="3" as="geometry" />
        </mxCell>
        <mxCell id="iuUvo8xiCQcZYHq4g_Gg-115" value="" style="ellipse;whiteSpace=wrap;html=1;aspect=fixed;fillColor=#FF3333;strokeColor=#000000;" vertex="1" parent="lOh8rRdROg5qKvjLAgk0-33">
          <mxGeometry x="88" y="76.41000000000003" width="3" height="3" as="geometry" />
        </mxCell>
        <mxCell id="iuUvo8xiCQcZYHq4g_Gg-116" value="" style="ellipse;whiteSpace=wrap;html=1;aspect=fixed;fillColor=#FF3333;strokeColor=#000000;" vertex="1" parent="lOh8rRdROg5qKvjLAgk0-33">
          <mxGeometry x="81" y="82.40999999999997" width="3" height="3" as="geometry" />
        </mxCell>
        <mxCell id="iuUvo8xiCQcZYHq4g_Gg-117" value="" style="ellipse;whiteSpace=wrap;html=1;aspect=fixed;fillColor=#FF3333;strokeColor=#000000;" vertex="1" parent="lOh8rRdROg5qKvjLAgk0-33">
          <mxGeometry x="75" y="87.40999999999997" width="3" height="3" as="geometry" />
        </mxCell>
        <mxCell id="iuUvo8xiCQcZYHq4g_Gg-137" value="" style="ellipse;whiteSpace=wrap;html=1;aspect=fixed;fillColor=#FF3333;" vertex="1" parent="lOh8rRdROg5qKvjLAgk0-33">
          <mxGeometry x="111" y="55.410000000000025" width="3" height="3" as="geometry" />
        </mxCell>
        <mxCell id="iuUvo8xiCQcZYHq4g_Gg-139" value="" style="ellipse;whiteSpace=wrap;html=1;aspect=fixed;fillColor=#FF3333;" vertex="1" parent="lOh8rRdROg5qKvjLAgk0-33">
          <mxGeometry x="107" y="59.410000000000025" width="3" height="3" as="geometry" />
        </mxCell>
        <mxCell id="iuUvo8xiCQcZYHq4g_Gg-140" value="" style="ellipse;whiteSpace=wrap;html=1;aspect=fixed;fillColor=#FF3333;" vertex="1" parent="lOh8rRdROg5qKvjLAgk0-33">
          <mxGeometry x="98.72000000000003" y="66.41000000000003" width="3" height="3" as="geometry" />
        </mxCell>
        <mxCell id="iuUvo8xiCQcZYHq4g_Gg-142" value="" style="ellipse;whiteSpace=wrap;html=1;aspect=fixed;fillColor=#FF3333;" vertex="1" parent="lOh8rRdROg5qKvjLAgk0-33">
          <mxGeometry x="147.44" y="22.460000000000008" width="3" height="3" as="geometry" />
        </mxCell>
        <mxCell id="iuUvo8xiCQcZYHq4g_Gg-143" value="" style="ellipse;whiteSpace=wrap;html=1;aspect=fixed;fillColor=#FF3333;" vertex="1" parent="lOh8rRdROg5qKvjLAgk0-33">
          <mxGeometry x="144.44" y="25.470000000000027" width="3" height="3" as="geometry" />
        </mxCell>
        <mxCell id="iuUvo8xiCQcZYHq4g_Gg-144" value="" style="ellipse;whiteSpace=wrap;html=1;aspect=fixed;fillColor=#FF3333;" vertex="1" parent="lOh8rRdROg5qKvjLAgk0-33">
          <mxGeometry x="138.44" y="30.460000000000036" width="3" height="3" as="geometry" />
        </mxCell>
        <mxCell id="iuUvo8xiCQcZYHq4g_Gg-145" value="" style="ellipse;whiteSpace=wrap;html=1;aspect=fixed;fillColor=#FF3333;" vertex="1" parent="lOh8rRdROg5qKvjLAgk0-33">
          <mxGeometry x="141.44" y="28.460000000000036" width="3" height="3" as="geometry" />
        </mxCell>
        <mxCell id="iuUvo8xiCQcZYHq4g_Gg-148" value="" style="ellipse;whiteSpace=wrap;html=1;aspect=fixed;fillColor=#FF3333;" vertex="1" parent="lOh8rRdROg5qKvjLAgk0-33">
          <mxGeometry x="48" y="23.860000000000014" width="3" height="3" as="geometry" />
        </mxCell>
        <mxCell id="iuUvo8xiCQcZYHq4g_Gg-150" value="" style="ellipse;whiteSpace=wrap;html=1;aspect=fixed;fillColor=#FF3333;" vertex="1" parent="lOh8rRdROg5qKvjLAgk0-33">
          <mxGeometry x="59" y="33.460000000000036" width="3" height="3" as="geometry" />
        </mxCell>
        <mxCell id="iuUvo8xiCQcZYHq4g_Gg-28" value="" style="ellipse;whiteSpace=wrap;html=1;aspect=fixed;" vertex="1" parent="lOh8rRdROg5qKvjLAgk0-33">
          <mxGeometry x="116.51000000000005" y="84.86999999999996" width="8.99" height="8.99" as="geometry" />
        </mxCell>
        <mxCell id="iuUvo8xiCQcZYHq4g_Gg-161" value="" style="endArrow=none;html=1;rounded=0;entryX=0.069;entryY=0.126;entryDx=0;entryDy=0;entryPerimeter=0;exitX=0.134;exitY=0.205;exitDx=0;exitDy=0;exitPerimeter=0;" edge="1" parent="lOh8rRdROg5qKvjLAgk0-33" source="iuUvo8xiCQcZYHq4g_Gg-20" target="iuUvo8xiCQcZYHq4g_Gg-20">
          <mxGeometry width="50" height="50" relative="1" as="geometry">
            <mxPoint x="96" y="149.86" as="sourcePoint" />
            <mxPoint x="146" y="99.86000000000001" as="targetPoint" />
          </mxGeometry>
        </mxCell>
        <mxCell id="iuUvo8xiCQcZYHq4g_Gg-162" value="" style="endArrow=none;html=1;rounded=0;entryX=0.044;entryY=0.079;entryDx=0;entryDy=0;entryPerimeter=0;exitX=1.051;exitY=0.949;exitDx=0;exitDy=0;exitPerimeter=0;" edge="1" parent="lOh8rRdROg5qKvjLAgk0-33" source="iuUvo8xiCQcZYHq4g_Gg-18" target="iuUvo8xiCQcZYHq4g_Gg-27">
          <mxGeometry width="50" height="50" relative="1" as="geometry">
            <mxPoint x="116" y="169.86" as="sourcePoint" />
            <mxPoint x="166" y="119.86000000000001" as="targetPoint" />
          </mxGeometry>
        </mxCell>
        <mxCell id="iuUvo8xiCQcZYHq4g_Gg-163" value="" style="endArrow=none;html=1;rounded=0;entryX=0.84;entryY=0.777;entryDx=0;entryDy=0;entryPerimeter=0;exitX=0.299;exitY=0.194;exitDx=0;exitDy=0;exitPerimeter=0;" edge="1" parent="lOh8rRdROg5qKvjLAgk0-33" source="iuUvo8xiCQcZYHq4g_Gg-65" target="iuUvo8xiCQcZYHq4g_Gg-27">
          <mxGeometry width="50" height="50" relative="1" as="geometry">
            <mxPoint x="126" y="178.86" as="sourcePoint" />
            <mxPoint x="176" y="128.86" as="targetPoint" />
          </mxGeometry>
        </mxCell>
        <mxCell id="lOh8rRdROg5qKvjLAgk0-37" value="&lt;font style=&quot;font-size: 8px;&quot;&gt;1&lt;/font&gt;" style="text;html=1;strokeColor=none;fillColor=none;align=center;verticalAlign=middle;whiteSpace=wrap;rounded=0;" parent="1" vertex="1">
          <mxGeometry x="515" y="234.07" width="60" height="30" as="geometry" />
        </mxCell>
        <mxCell id="lOh8rRdROg5qKvjLAgk0-41" value="&lt;font style=&quot;font-size: 8px;&quot;&gt;1&lt;/font&gt;" style="text;html=1;strokeColor=none;fillColor=none;align=center;verticalAlign=middle;whiteSpace=wrap;rounded=0;" parent="1" vertex="1">
          <mxGeometry x="309" y="233.07" width="60" height="30" as="geometry" />
        </mxCell>
        <mxCell id="lOh8rRdROg5qKvjLAgk0-42" value="&lt;font style=&quot;font-size: 8px;&quot;&gt;1&lt;/font&gt;" style="text;html=1;strokeColor=none;fillColor=none;align=center;verticalAlign=middle;whiteSpace=wrap;rounded=0;" parent="1" vertex="1">
          <mxGeometry x="330" y="160" width="60" height="30" as="geometry" />
        </mxCell>
        <mxCell id="lOh8rRdROg5qKvjLAgk0-44" value="&lt;font style=&quot;font-size: 8px;&quot;&gt;1&lt;/font&gt;" style="text;html=1;strokeColor=none;fillColor=none;align=center;verticalAlign=middle;whiteSpace=wrap;rounded=0;" parent="1" vertex="1">
          <mxGeometry x="493.44" y="160" width="60" height="30" as="geometry" />
        </mxCell>
        <mxCell id="xhZgDfqvbPznFeVXqirZ-7" value="" style="ellipse;whiteSpace=wrap;html=1;aspect=fixed;fillColor=#f45d5d;" parent="1" vertex="1">
          <mxGeometry x="392" y="248" width="3" height="3" as="geometry" />
        </mxCell>
        <mxCell id="xhZgDfqvbPznFeVXqirZ-8" value="" style="ellipse;whiteSpace=wrap;html=1;aspect=fixed;fillColor=#FF6666;" parent="1" vertex="1">
          <mxGeometry x="391" y="293" width="3" height="3" as="geometry" />
        </mxCell>
        <mxCell id="xhZgDfqvbPznFeVXqirZ-9" value="" style="ellipse;whiteSpace=wrap;html=1;aspect=fixed;fillColor=#FF3333;strokeColor=#330000;" parent="1" vertex="1">
          <mxGeometry x="423" y="232" width="3" height="3" as="geometry" />
        </mxCell>
        <mxCell id="xhZgDfqvbPznFeVXqirZ-10" value="" style="ellipse;whiteSpace=wrap;html=1;aspect=fixed;fillColor=#f45d5d;" parent="1" vertex="1">
          <mxGeometry x="470" y="222" width="3" height="3" as="geometry" />
        </mxCell>
        <mxCell id="xhZgDfqvbPznFeVXqirZ-11" value="" style="ellipse;whiteSpace=wrap;html=1;aspect=fixed;fillColor=#f45d5d;" parent="1" vertex="1">
          <mxGeometry x="500" y="249" width="3" height="3" as="geometry" />
        </mxCell>
        <mxCell id="lOh8rRdROg5qKvjLAgk0-24" value="&lt;font style=&quot;font-size: 10px;&quot;&gt;Drive_duration&lt;br&gt;[1, 30 days]&lt;br&gt;&lt;/font&gt;" style="text;html=1;strokeColor=none;fillColor=none;align=center;verticalAlign=middle;whiteSpace=wrap;rounded=0;" parent="1" vertex="1">
          <mxGeometry x="309.5" y="330" width="60" height="30" as="geometry" />
        </mxCell>
        <mxCell id="lOh8rRdROg5qKvjLAgk0-23" value="&lt;font style=&quot;font-size: 10px;&quot;&gt;Median_accTimeSeries&lt;br&gt;[-10m/s^2, 10m/s^2]&lt;br&gt;&lt;/font&gt;" style="text;html=1;strokeColor=none;fillColor=none;align=center;verticalAlign=middle;whiteSpace=wrap;rounded=0;" parent="1" vertex="1">
          <mxGeometry x="556.44" y="160" width="70" height="30" as="geometry" />
        </mxCell>
        <mxCell id="lOh8rRdROg5qKvjLAgk0-30" value="&lt;font style=&quot;font-size: 10px;&quot;&gt;Rental_profile&lt;br&gt;[discrete {0,1,2,3,4,5}]&lt;br&gt;&lt;/font&gt;" style="text;html=1;strokeColor=none;fillColor=none;align=center;verticalAlign=middle;whiteSpace=wrap;rounded=0;" parent="1" vertex="1">
          <mxGeometry x="513" y="330" width="60" height="30" as="geometry" />
        </mxCell>
        <mxCell id="xhZgDfqvbPznFeVXqirZ-21" value="" style="ellipse;whiteSpace=wrap;html=1;aspect=fixed;fillColor=#FF3333;" parent="1" vertex="1">
          <mxGeometry x="371" y="248" width="3" height="3" as="geometry" />
        </mxCell>
        <mxCell id="xhZgDfqvbPznFeVXqirZ-23" value="" style="ellipse;whiteSpace=wrap;html=1;aspect=fixed;fillColor=#FF3333;strokeColor=#330000;" parent="1" vertex="1">
          <mxGeometry x="431" y="240" width="3" height="3" as="geometry" />
        </mxCell>
        <mxCell id="xhZgDfqvbPznFeVXqirZ-24" value="" style="ellipse;whiteSpace=wrap;html=1;aspect=fixed;fillColor=#FF3333;strokeColor=#330000;" parent="1" vertex="1">
          <mxGeometry x="480" y="214" width="3" height="2" as="geometry" />
        </mxCell>
        <mxCell id="xhZgDfqvbPznFeVXqirZ-25" value="" style="ellipse;whiteSpace=wrap;html=1;aspect=fixed;fillColor=#FF3333;strokeColor=#000000;" parent="1" vertex="1">
          <mxGeometry x="513" y="249" width="3" height="3" as="geometry" />
        </mxCell>
        <mxCell id="xhZgDfqvbPznFeVXqirZ-32" value="" style="ellipse;whiteSpace=wrap;html=1;aspect=fixed;fillColor=#FF3333;" parent="1" vertex="1">
          <mxGeometry x="354" y="248" width="3" height="3" as="geometry" />
        </mxCell>
        <mxCell id="xhZgDfqvbPznFeVXqirZ-33" value="" style="ellipse;whiteSpace=wrap;html=1;aspect=fixed;fillColor=#FF3333;strokeColor=#330000;" parent="1" vertex="1">
          <mxGeometry x="415" y="225" width="3" height="3" as="geometry" />
        </mxCell>
        <mxCell id="xhZgDfqvbPznFeVXqirZ-34" value="" style="ellipse;whiteSpace=wrap;html=1;aspect=fixed;fillColor=#FF3333;strokeColor=#330000;" parent="1" vertex="1">
          <mxGeometry x="458" y="233" width="3" height="3" as="geometry" />
        </mxCell>
        <mxCell id="xhZgDfqvbPznFeVXqirZ-35" value="" style="ellipse;whiteSpace=wrap;html=1;aspect=fixed;fillColor=#FF3333;strokeColor=#000000;" parent="1" vertex="1">
          <mxGeometry x="525" y="249" width="3" height="3" as="geometry" />
        </mxCell>
        <mxCell id="xhZgDfqvbPznFeVXqirZ-36" value="" style="ellipse;whiteSpace=wrap;html=1;aspect=fixed;fillColor=#FF6666;" parent="1" vertex="1">
          <mxGeometry x="382" y="301" width="3" height="3" as="geometry" />
        </mxCell>
        <mxCell id="xhZgDfqvbPznFeVXqirZ-47" value="Check Coverage radar and bubble plot" style="rounded=1;whiteSpace=wrap;html=1;" parent="1" vertex="1">
          <mxGeometry x="242" y="48" width="420" height="60" as="geometry" />
        </mxCell>
        <mxCell id="xhZgDfqvbPznFeVXqirZ-48" value="Accept" style="rounded=1;whiteSpace=wrap;html=1;fillColor=#0057D8;fontColor=#FFFFFF;" parent="1" vertex="1">
          <mxGeometry x="324" y="409" width="90" height="30" as="geometry" />
        </mxCell>
        <mxCell id="xhZgDfqvbPznFeVXqirZ-50" value="Refuse" style="rounded=1;whiteSpace=wrap;html=1;fillColor=#0057D8;fontColor=#FFFFFF;" parent="1" vertex="1">
          <mxGeometry x="474" y="409" width="90" height="30" as="geometry" />
        </mxCell>
        <mxCell id="xhZgDfqvbPznFeVXqirZ-51" value="" style="html=1;shadow=0;dashed=0;shape=mxgraph.atlassian.close;fillColor=#BA3200;strokeColor=none;html=1;sketch=0;" parent="1" vertex="1">
          <mxGeometry x="455.5" y="418" width="14" height="14" as="geometry" />
        </mxCell>
        <mxCell id="xhZgDfqvbPznFeVXqirZ-52" value="" style="html=1;shadow=0;dashed=0;shape=mxgraph.atlassian.checkbox;fillColor=#008465;strokeColor=none;html=1;sketch=0;" parent="1" vertex="1">
          <mxGeometry x="305" y="418" width="14" height="14" as="geometry" />
        </mxCell>
        <mxCell id="iuUvo8xiCQcZYHq4g_Gg-71" value="" style="ellipse;whiteSpace=wrap;html=1;aspect=fixed;fillColor=#FF6666;strokeColor=#000000;" vertex="1" parent="1">
          <mxGeometry x="413" y="273" width="3" height="3" as="geometry" />
        </mxCell>
        <mxCell id="iuUvo8xiCQcZYHq4g_Gg-72" value="" style="ellipse;whiteSpace=wrap;html=1;aspect=fixed;fillColor=#FF3333;strokeColor=#000000;" vertex="1" parent="1">
          <mxGeometry x="397" y="248" width="3" height="3" as="geometry" />
        </mxCell>
        <mxCell id="iuUvo8xiCQcZYHq4g_Gg-73" value="" style="ellipse;whiteSpace=wrap;html=1;aspect=fixed;fillColor=#FF3333;strokeColor=#330000;" vertex="1" parent="1">
          <mxGeometry x="427" y="236" width="3" height="3" as="geometry" />
        </mxCell>
        <mxCell id="iuUvo8xiCQcZYHq4g_Gg-74" value="" style="ellipse;whiteSpace=wrap;html=1;aspect=fixed;fillColor=#FF3333;strokeColor=#330000;" vertex="1" parent="1">
          <mxGeometry x="464" y="228" width="3" height="3" as="geometry" />
        </mxCell>
        <mxCell id="iuUvo8xiCQcZYHq4g_Gg-75" value="" style="ellipse;whiteSpace=wrap;html=1;aspect=fixed;fillColor=#FF3333;strokeColor=#000000;" vertex="1" parent="1">
          <mxGeometry x="485" y="249" width="3" height="3" as="geometry" />
        </mxCell>
        <mxCell id="iuUvo8xiCQcZYHq4g_Gg-76" value="" style="ellipse;whiteSpace=wrap;html=1;aspect=fixed;fillColor=#FF6666;strokeColor=#000000;" vertex="1" parent="1">
          <mxGeometry x="402" y="283" width="3" height="3" as="geometry" />
        </mxCell>
        <mxCell id="iuUvo8xiCQcZYHq4g_Gg-77" value="" style="ellipse;whiteSpace=wrap;html=1;aspect=fixed;fillColor=#FF3333;strokeColor=#330000;" vertex="1" parent="1">
          <mxGeometry x="405" y="248" width="3" height="3" as="geometry" />
        </mxCell>
        <mxCell id="iuUvo8xiCQcZYHq4g_Gg-78" value="" style="ellipse;whiteSpace=wrap;html=1;aspect=fixed;fillColor=#FF3333;strokeColor=#330000;" vertex="1" parent="1">
          <mxGeometry x="407" y="218" width="3" height="3" as="geometry" />
        </mxCell>
        <mxCell id="iuUvo8xiCQcZYHq4g_Gg-79" value="" style="ellipse;whiteSpace=wrap;html=1;aspect=fixed;fillColor=#FF3333;strokeColor=#330000;" vertex="1" parent="1">
          <mxGeometry x="490" y="204" width="3" height="3" as="geometry" />
        </mxCell>
        <mxCell id="iuUvo8xiCQcZYHq4g_Gg-80" value="" style="ellipse;whiteSpace=wrap;html=1;aspect=fixed;fillColor=#FF3333;strokeColor=#330000;" vertex="1" parent="1">
          <mxGeometry x="519" y="249" width="3" height="3" as="geometry" />
        </mxCell>
        <mxCell id="iuUvo8xiCQcZYHq4g_Gg-19" value="" style="ellipse;whiteSpace=wrap;html=1;aspect=fixed;" vertex="1" parent="1">
          <mxGeometry x="472.02" y="274" width="7.98" height="7.98" as="geometry" />
        </mxCell>
        <mxCell id="iuUvo8xiCQcZYHq4g_Gg-86" value="" style="ellipse;whiteSpace=wrap;html=1;aspect=fixed;fillColor=#FF3333;strokeColor=#000000;" vertex="1" parent="1">
          <mxGeometry x="539" y="249" width="3" height="3" as="geometry" />
        </mxCell>
        <mxCell id="iuUvo8xiCQcZYHq4g_Gg-87" value="" style="ellipse;whiteSpace=wrap;html=1;aspect=fixed;fillColor=#FF3333;strokeColor=#000000;" vertex="1" parent="1">
          <mxGeometry x="509" y="249" width="3" height="3" as="geometry" />
        </mxCell>
        <mxCell id="iuUvo8xiCQcZYHq4g_Gg-88" value="" style="ellipse;whiteSpace=wrap;html=1;aspect=fixed;fillColor=#FF3333;strokeColor=#000000;" vertex="1" parent="1">
          <mxGeometry x="515" y="249" width="3" height="3" as="geometry" />
        </mxCell>
        <mxCell id="iuUvo8xiCQcZYHq4g_Gg-89" value="" style="ellipse;whiteSpace=wrap;html=1;aspect=fixed;fillColor=#FF3333;strokeColor=#000000;" vertex="1" parent="1">
          <mxGeometry x="522" y="249" width="3" height="3" as="geometry" />
        </mxCell>
        <mxCell id="iuUvo8xiCQcZYHq4g_Gg-90" value="" style="ellipse;whiteSpace=wrap;html=1;aspect=fixed;fillColor=#FF3333;strokeColor=#000000;" vertex="1" parent="1">
          <mxGeometry x="531" y="249" width="3" height="3" as="geometry" />
        </mxCell>
        <mxCell id="iuUvo8xiCQcZYHq4g_Gg-91" value="" style="ellipse;whiteSpace=wrap;html=1;aspect=fixed;fillColor=#FF3333;strokeColor=#000000;" vertex="1" parent="1">
          <mxGeometry x="505" y="249" width="3" height="3" as="geometry" />
        </mxCell>
        <mxCell id="iuUvo8xiCQcZYHq4g_Gg-105" value="" style="ellipse;whiteSpace=wrap;html=1;aspect=fixed;fillColor=#FF3333;strokeColor=#000000;" vertex="1" parent="1">
          <mxGeometry x="370.78" y="311.51" width="3" height="3" as="geometry" />
        </mxCell>
        <mxCell id="iuUvo8xiCQcZYHq4g_Gg-106" value="" style="ellipse;whiteSpace=wrap;html=1;aspect=fixed;fillColor=#FF3333;strokeColor=#000000;" vertex="1" parent="1">
          <mxGeometry x="372.78" y="309.51" width="3" height="3" as="geometry" />
        </mxCell>
        <mxCell id="iuUvo8xiCQcZYHq4g_Gg-107" value="" style="ellipse;whiteSpace=wrap;html=1;aspect=fixed;fillColor=#FF3333;strokeColor=#000000;" vertex="1" parent="1">
          <mxGeometry x="376.78" y="305.51" width="3" height="3" as="geometry" />
        </mxCell>
        <mxCell id="iuUvo8xiCQcZYHq4g_Gg-108" value="" style="ellipse;whiteSpace=wrap;html=1;aspect=fixed;fillColor=#FF3333;strokeColor=#000000;" vertex="1" parent="1">
          <mxGeometry x="379.78" y="303.51" width="3" height="3" as="geometry" />
        </mxCell>
        <mxCell id="iuUvo8xiCQcZYHq4g_Gg-109" value="" style="ellipse;whiteSpace=wrap;html=1;aspect=fixed;fillColor=#FF3333;strokeColor=#000000;" vertex="1" parent="1">
          <mxGeometry x="383.78" y="299.51" width="3" height="3" as="geometry" />
        </mxCell>
        <mxCell id="iuUvo8xiCQcZYHq4g_Gg-110" value="" style="ellipse;whiteSpace=wrap;html=1;aspect=fixed;fillColor=#FF3333;strokeColor=#000000;" vertex="1" parent="1">
          <mxGeometry x="392.78" y="291.51" width="3" height="3" as="geometry" />
        </mxCell>
        <mxCell id="iuUvo8xiCQcZYHq4g_Gg-111" value="" style="ellipse;whiteSpace=wrap;html=1;aspect=fixed;fillColor=#FF3333;strokeColor=#000000;" vertex="1" parent="1">
          <mxGeometry x="387.78" y="296.51" width="3" height="3" as="geometry" />
        </mxCell>
        <mxCell id="iuUvo8xiCQcZYHq4g_Gg-112" value="" style="ellipse;whiteSpace=wrap;html=1;aspect=fixed;fillColor=#FF3333;strokeColor=#000000;" vertex="1" parent="1">
          <mxGeometry x="403.78" y="281.51" width="3" height="3" as="geometry" />
        </mxCell>
        <mxCell id="iuUvo8xiCQcZYHq4g_Gg-113" value="" style="ellipse;whiteSpace=wrap;html=1;aspect=fixed;fillColor=#FF3333;strokeColor=#000000;" vertex="1" parent="1">
          <mxGeometry x="408.78" y="277.51" width="3" height="3" as="geometry" />
        </mxCell>
        <mxCell id="iuUvo8xiCQcZYHq4g_Gg-114" value="" style="ellipse;whiteSpace=wrap;html=1;aspect=fixed;fillColor=#FF3333;strokeColor=#000000;" vertex="1" parent="1">
          <mxGeometry x="434.78" y="253.51" width="3" height="3" as="geometry" />
        </mxCell>
        <mxCell id="iuUvo8xiCQcZYHq4g_Gg-118" value="" style="ellipse;whiteSpace=wrap;html=1;aspect=fixed;fillColor=#FF3333;" vertex="1" parent="1">
          <mxGeometry x="343" y="248" width="3" height="3" as="geometry" />
        </mxCell>
        <mxCell id="iuUvo8xiCQcZYHq4g_Gg-119" value="" style="ellipse;whiteSpace=wrap;html=1;aspect=fixed;fillColor=#FF3333;" vertex="1" parent="1">
          <mxGeometry x="374" y="249" width="3" height="2" as="geometry" />
        </mxCell>
        <mxCell id="iuUvo8xiCQcZYHq4g_Gg-120" value="" style="ellipse;whiteSpace=wrap;html=1;aspect=fixed;fillColor=#FF3333;" vertex="1" parent="1">
          <mxGeometry x="366" y="248" width="3" height="3" as="geometry" />
        </mxCell>
        <mxCell id="iuUvo8xiCQcZYHq4g_Gg-121" value="" style="ellipse;whiteSpace=wrap;html=1;aspect=fixed;fillColor=#FF3333;" vertex="1" parent="1">
          <mxGeometry x="394" y="248" width="3" height="3" as="geometry" />
        </mxCell>
        <mxCell id="iuUvo8xiCQcZYHq4g_Gg-122" value="" style="ellipse;whiteSpace=wrap;html=1;aspect=fixed;fillColor=#FF3333;" vertex="1" parent="1">
          <mxGeometry x="400" y="248" width="3" height="3" as="geometry" />
        </mxCell>
        <mxCell id="iuUvo8xiCQcZYHq4g_Gg-123" value="" style="ellipse;whiteSpace=wrap;html=1;aspect=fixed;fillColor=#FF3333;" vertex="1" parent="1">
          <mxGeometry x="389" y="248" width="3" height="3" as="geometry" />
        </mxCell>
        <mxCell id="iuUvo8xiCQcZYHq4g_Gg-124" value="" style="ellipse;whiteSpace=wrap;html=1;aspect=fixed;fillColor=#FF3333;" vertex="1" parent="1">
          <mxGeometry x="424" y="248" width="3" height="3" as="geometry" />
        </mxCell>
        <mxCell id="iuUvo8xiCQcZYHq4g_Gg-125" value="" style="ellipse;whiteSpace=wrap;html=1;aspect=fixed;fillColor=#FF3333;" vertex="1" parent="1">
          <mxGeometry x="427" y="248" width="3" height="3" as="geometry" />
        </mxCell>
        <mxCell id="iuUvo8xiCQcZYHq4g_Gg-126" value="" style="ellipse;whiteSpace=wrap;html=1;aspect=fixed;fillColor=#FF3333;" vertex="1" parent="1">
          <mxGeometry x="434" y="248" width="3" height="3" as="geometry" />
        </mxCell>
        <mxCell id="iuUvo8xiCQcZYHq4g_Gg-127" value="" style="ellipse;whiteSpace=wrap;html=1;aspect=fixed;fillColor=#FF3333;" vertex="1" parent="1">
          <mxGeometry x="347" y="248" width="3" height="3" as="geometry" />
        </mxCell>
        <mxCell id="iuUvo8xiCQcZYHq4g_Gg-128" value="" style="ellipse;whiteSpace=wrap;html=1;aspect=fixed;fillColor=#FF3333;" vertex="1" parent="1">
          <mxGeometry x="381" y="248" width="3" height="3" as="geometry" />
        </mxCell>
        <mxCell id="iuUvo8xiCQcZYHq4g_Gg-129" value="" style="ellipse;whiteSpace=wrap;html=1;aspect=fixed;fillColor=#FF3333;" vertex="1" parent="1">
          <mxGeometry x="413" y="248" width="3" height="3" as="geometry" />
        </mxCell>
        <mxCell id="iuUvo8xiCQcZYHq4g_Gg-130" value="" style="ellipse;whiteSpace=wrap;html=1;aspect=fixed;fillColor=#FF3333;" vertex="1" parent="1">
          <mxGeometry x="362" y="248" width="3" height="3" as="geometry" />
        </mxCell>
        <mxCell id="iuUvo8xiCQcZYHq4g_Gg-131" value="" style="ellipse;whiteSpace=wrap;html=1;aspect=fixed;fillColor=#FF3333;" vertex="1" parent="1">
          <mxGeometry x="502" y="194" width="3" height="3" as="geometry" />
        </mxCell>
        <mxCell id="iuUvo8xiCQcZYHq4g_Gg-132" value="" style="ellipse;whiteSpace=wrap;html=1;aspect=fixed;fillColor=#FF3333;" vertex="1" parent="1">
          <mxGeometry x="509" y="187" width="3" height="3" as="geometry" />
        </mxCell>
        <mxCell id="iuUvo8xiCQcZYHq4g_Gg-134" value="" style="ellipse;whiteSpace=wrap;html=1;aspect=fixed;fillColor=#FF3333;" vertex="1" parent="1">
          <mxGeometry x="506" y="189.64" width="3" height="3" as="geometry" />
        </mxCell>
        <mxCell id="iuUvo8xiCQcZYHq4g_Gg-135" value="" style="ellipse;whiteSpace=wrap;html=1;aspect=fixed;fillColor=#FF3333;" vertex="1" parent="1">
          <mxGeometry x="512" y="184" width="3" height="3" as="geometry" />
        </mxCell>
        <mxCell id="iuUvo8xiCQcZYHq4g_Gg-136" value="" style="ellipse;whiteSpace=wrap;html=1;aspect=fixed;fillColor=#FF3333;" vertex="1" parent="1">
          <mxGeometry x="518.5" y="178.14" width="3" height="3" as="geometry" />
        </mxCell>
        <mxCell id="iuUvo8xiCQcZYHq4g_Gg-141" value="" style="ellipse;whiteSpace=wrap;html=1;aspect=fixed;fillColor=#FF3333;" vertex="1" parent="1">
          <mxGeometry x="445" y="244.5" width="3" height="3" as="geometry" />
        </mxCell>
        <mxCell id="iuUvo8xiCQcZYHq4g_Gg-146" value="" style="ellipse;whiteSpace=wrap;html=1;aspect=fixed;fillColor=#FF3333;" vertex="1" parent="1">
          <mxGeometry x="496" y="199" width="3" height="3" as="geometry" />
        </mxCell>
        <mxCell id="iuUvo8xiCQcZYHq4g_Gg-147" value="" style="ellipse;whiteSpace=wrap;html=1;aspect=fixed;fillColor=#FF3333;" vertex="1" parent="1">
          <mxGeometry x="473" y="219.51" width="3" height="3" as="geometry" />
        </mxCell>
        <mxCell id="iuUvo8xiCQcZYHq4g_Gg-152" value="" style="ellipse;whiteSpace=wrap;html=1;aspect=fixed;fillColor=#FF3333;strokeColor=#330000;" vertex="1" parent="1">
          <mxGeometry x="418" y="227" width="3" height="3" as="geometry" />
        </mxCell>
        <mxCell id="iuUvo8xiCQcZYHq4g_Gg-153" value="" style="ellipse;whiteSpace=wrap;html=1;aspect=fixed;fillColor=#FF3333;strokeColor=#330000;" vertex="1" parent="1">
          <mxGeometry x="420" y="229" width="3" height="3" as="geometry" />
        </mxCell>
        <mxCell id="iuUvo8xiCQcZYHq4g_Gg-154" value="" style="ellipse;whiteSpace=wrap;html=1;aspect=fixed;fillColor=#FF3333;strokeColor=#330000;" vertex="1" parent="1">
          <mxGeometry x="412" y="222" width="3" height="3" as="geometry" />
        </mxCell>
        <mxCell id="iuUvo8xiCQcZYHq4g_Gg-155" value="" style="ellipse;whiteSpace=wrap;html=1;aspect=fixed;fillColor=#FF3333;strokeColor=#330000;" vertex="1" parent="1">
          <mxGeometry x="385" y="198" width="3" height="3" as="geometry" />
        </mxCell>
        <mxCell id="iuUvo8xiCQcZYHq4g_Gg-156" value="" style="ellipse;whiteSpace=wrap;html=1;aspect=fixed;fillColor=#FF3333;strokeColor=#330000;" vertex="1" parent="1">
          <mxGeometry x="396" y="208" width="3" height="3" as="geometry" />
        </mxCell>
        <mxCell id="iuUvo8xiCQcZYHq4g_Gg-157" value="" style="ellipse;whiteSpace=wrap;html=1;aspect=fixed;fillColor=#FF3333;strokeColor=#330000;" vertex="1" parent="1">
          <mxGeometry x="381" y="194" width="3" height="3" as="geometry" />
        </mxCell>
        <mxCell id="iuUvo8xiCQcZYHq4g_Gg-160" value="" style="endArrow=none;html=1;rounded=0;entryX=1;entryY=1;entryDx=0;entryDy=0;exitX=0.098;exitY=0.324;exitDx=0;exitDy=0;exitPerimeter=0;" edge="1" parent="1" source="iuUvo8xiCQcZYHq4g_Gg-19" target="iuUvo8xiCQcZYHq4g_Gg-28">
          <mxGeometry width="50" height="50" relative="1" as="geometry">
            <mxPoint x="470" y="270" as="sourcePoint" />
            <mxPoint x="470" y="270" as="targetPoint" />
          </mxGeometry>
        </mxCell>
        <mxCell id="iuUvo8xiCQcZYHq4g_Gg-164" value="" style="ellipse;whiteSpace=wrap;html=1;aspect=fixed;fillColor=#FF3333;strokeColor=#330000;" vertex="1" parent="1">
          <mxGeometry x="434" y="242" width="3" height="3" as="geometry" />
        </mxCell>
        <mxCell id="iuUvo8xiCQcZYHq4g_Gg-165" value="" style="ellipse;whiteSpace=wrap;html=1;aspect=fixed;fillColor=#FF3333;strokeColor=#330000;" vertex="1" parent="1">
          <mxGeometry x="413" y="223" width="3" height="3" as="geometry" />
        </mxCell>
        <mxCell id="iuUvo8xiCQcZYHq4g_Gg-166" value="" style="ellipse;whiteSpace=wrap;html=1;aspect=fixed;fillColor=#FF3333;strokeColor=#330000;" vertex="1" parent="1">
          <mxGeometry x="422" y="231" width="3" height="3" as="geometry" />
        </mxCell>
        <mxCell id="iuUvo8xiCQcZYHq4g_Gg-167" value="" style="ellipse;whiteSpace=wrap;html=1;aspect=fixed;fillColor=#FF3333;strokeColor=#330000;" vertex="1" parent="1">
          <mxGeometry x="411" y="221" width="3" height="3" as="geometry" />
        </mxCell>
        <mxCell id="iuUvo8xiCQcZYHq4g_Gg-168" value="" style="ellipse;whiteSpace=wrap;html=1;aspect=fixed;fillColor=#FF3333;strokeColor=#330000;" vertex="1" parent="1">
          <mxGeometry x="424" y="233" width="3" height="3" as="geometry" />
        </mxCell>
      </root>
    </mxGraphModel>
  </diagram>
</mxfile>
